<?xml version="1.0" encoding="UTF-8" standalone="no"?>
<!-- Generator: Adobe Illustrator 16.0.2, SVG Export Plug-In . SVG Version: 6.00 Build 0)  -->

<svg
   xmlns:dc="http://purl.org/dc/elements/1.1/"
   xmlns:cc="http://creativecommons.org/ns#"
   xmlns:rdf="http://www.w3.org/1999/02/22-rdf-syntax-ns#"
   xmlns:svg="http://www.w3.org/2000/svg"
   xmlns="http://www.w3.org/2000/svg"
   xmlns:sodipodi="http://sodipodi.sourceforge.net/DTD/sodipodi-0.dtd"
   xmlns:inkscape="http://www.inkscape.org/namespaces/inkscape"
   version="1.1"
   id="svg8"
   sodipodi:docname="prueba_fondo_rojo_01.svg"
   inkscape:version="0.92.2 (5c3e80d, 2017-08-06)"
   x="0px"
   y="0px"
   width="1080px"
   height="1920px"
   viewBox="0 0 1080 1920"
   enable-background="new 0 0 1080 1920"
   xml:space="preserve"><metadata
     id="metadata4567"><rdf:RDF><cc:Work
         rdf:about=""><dc:format>image/svg+xml</dc:format><dc:type
           rdf:resource="http://purl.org/dc/dcmitype/StillImage" /></cc:Work></rdf:RDF></metadata><defs
     id="defs4565" /><sodipodi:namedview
     pagecolor="#ffffff"
     bordercolor="#666666"
     borderopacity="1"
     objecttolerance="10"
     gridtolerance="10"
     guidetolerance="10"
     inkscape:pageopacity="0"
     inkscape:pageshadow="2"
     inkscape:window-width="1920"
     inkscape:window-height="1017"
     id="namedview4563"
     showgrid="false"
     inkscape:zoom="0.34766083"
     inkscape:cx="348.5516"
     inkscape:cy="698.0317"
     inkscape:window-x="-8"
     inkscape:window-y="-8"
     inkscape:window-maximized="1"
     inkscape:current-layer="svg8" /><g
     id="XMLID_1_"><g
       id="g4559"><path
         fill="#EE5668"
         d="M1080,0v1920H0V0H1080z M1030.889,802.12c14.28-56.43,13-112.1-6.859-166.96    c-17.601-48.65-46.641-89.92-82.54-126.78c-22.13-22.78-47.96-41.07-72.75-60.56c-47.32-37.26-98.101-69.46-149.75-100.26    c-59.04-35.26-119.24-68.34-183.13-94.29c-22.26-9.07-44.87-17.41-68.86-20.66c-45.88-6.18-90.84-1.4-134.72,13.24    c-46.52,15.48-88.23,39.34-123.96,72.99c-26.03,24.54-51.74,49.49-76.61,75.16c-12.23,12.59-23.46,26.47-33.08,41.11    c-43.2,65.77-60.96,139.04-58.92,216.93c0.92,34.85,6.22,69.58,9.67,104.36c4.93,49.29,10.06,98.54,15.04,147.83    c4.97,49.29,9.82,98.58,14.8,147.87c5.25,52.5,10.94,104.92,15.92,157.41c5.13,54.71,14.6,108.61,28.27,161.75    c13.68,52.9,31.73,104.08,57.23,152.61c32.85,62.6,81.74,107.24,146.59,134.91c48.57,20.739,99.38,30.359,152.04,31.13    c4.5,0,9.03,0.31,13.48-0.08c18.33-1.57,37.14-1.37,54.86-5.58c37.58-8.9,73.8-22.5,109.21-37.94    c23.06-10.069,45.84-20.899,66.819-34.89c31.04-20.7,53.7-49.29,73.431-80.42c25.87-40.74,45.04-84.78,62.529-129.62    c24.7-63.479,43.71-128.86,62.57-194.229C960.95,1072.79,996.559,937.64,1030.889,802.12z"
         id="path4557" /></g></g></svg>