<?xml version="1.0" encoding="UTF-8" standalone="no"?>
<!-- Generator: Adobe Illustrator 16.0.2, SVG Export Plug-In . SVG Version: 6.00 Build 0)  -->

<svg
   xmlns:dc="http://purl.org/dc/elements/1.1/"
   xmlns:cc="http://creativecommons.org/ns#"
   xmlns:rdf="http://www.w3.org/1999/02/22-rdf-syntax-ns#"
   xmlns:svg="http://www.w3.org/2000/svg"
   xmlns="http://www.w3.org/2000/svg"
   xmlns:sodipodi="http://sodipodi.sourceforge.net/DTD/sodipodi-0.dtd"
   xmlns:inkscape="http://www.inkscape.org/namespaces/inkscape"
   version="1.1"
   id="svg8"
   sodipodi:docname="prueba_fondo_blanco_y_edit.svg"
   inkscape:version="0.92.2 (5c3e80d, 2017-08-06)"
   x="0px"
   y="0px"
   width="1080px"
   height="1920px"
   viewBox="0 0 1080 1920"
   enable-background="new 0 0 1080 1920"
   xml:space="preserve"><metadata
     id="metadata4567"><rdf:RDF><cc:Work
         rdf:about=""><dc:format>image/svg+xml</dc:format><dc:type
           rdf:resource="http://purl.org/dc/dcmitype/StillImage" /><dc:title></dc:title></cc:Work></rdf:RDF></metadata><defs
     id="defs4565" /><sodipodi:namedview
     pagecolor="#ffffff"
     bordercolor="#666666"
     borderopacity="1"
     objecttolerance="10"
     gridtolerance="10"
     guidetolerance="10"
     inkscape:pageopacity="0"
     inkscape:pageshadow="2"
     inkscape:window-width="1920"
     inkscape:window-height="1017"
     id="namedview4563"
     showgrid="false"
     inkscape:zoom="0.34766083"
     inkscape:cx="-6.6796753"
     inkscape:cy="931.99602"
     inkscape:window-x="-8"
     inkscape:window-y="-8"
     inkscape:window-maximized="1"
     inkscape:current-layer="svg8"
     inkscape:showpageshadow="false"
     showborder="false"
     inkscape:pagecheckerboard="true" /><g
     id="XMLID_1_"
     style="stroke:none;stroke-width:4;stroke-miterlimit:4;stroke-dasharray:none;stroke-opacity:1"><g
       id="g4559"
       style="stroke:none;stroke-width:4;stroke-miterlimit:4;stroke-dasharray:none;stroke-opacity:1"><path
         d="M 1080,0 V 1920 H 0 V 0 Z m -49.111,802.12 c 14.28,-56.43 13,-112.1 -6.859,-166.96 C 1006.429,586.51 977.389,545.24 941.49,508.38 919.36,485.6 893.53,467.31 868.74,447.82 821.42,410.56 770.639,378.36 718.99,347.56 659.95,312.3 599.75,279.22 535.86,253.27 513.6,244.2 490.99,235.86 467,232.61 c -45.88,-6.18 -90.84,-1.4 -134.72,13.24 -46.52,15.48 -88.23,39.34 -123.96,72.99 -26.03,24.54 -51.74,49.49 -76.61,75.16 -12.23,12.59 -23.46,26.47 -33.08,41.11 -43.2,65.77 -60.96,139.04 -58.92,216.93 0.92,34.85 6.22,69.58 9.67,104.36 4.93,49.29 10.06,98.54 15.04,147.83 4.97,49.29 9.82,98.58 14.8,147.87 5.25,52.5 10.94,104.92 15.92,157.41 5.13,54.71 14.6,108.61 28.27,161.75 13.68,52.9 31.73,104.08 57.23,152.61 32.85,62.6 81.74,107.24 146.59,134.91 48.57,20.739 99.38,30.359 152.04,31.13 4.5,0 9.03,0.31 13.48,-0.08 18.33,-1.57 37.14,-1.37 54.86,-5.58 37.58,-8.9 73.8,-22.5 109.21,-37.94 23.06,-10.069 45.84,-20.899 66.819,-34.89 31.04,-20.7 53.7,-49.29 73.431,-80.42 25.87,-40.74 45.04,-84.78 62.529,-129.62 24.7,-63.479 43.71,-128.86 62.57,-194.229 38.781,-134.361 74.39,-269.511 108.72,-405.031 z"
         id="path4557"
         style="fill:#ffffff;stroke:none;stroke-width:4;stroke-miterlimit:4;stroke-dasharray:none;stroke-opacity:1"
         inkscape:connector-curvature="0" /></g></g><g
     id="g4692"
     transform="matrix(0.29500997,0,0,0.29500997,852.20976,1702.7284)"><g
       id="g4636"><path
         id="path4634"
         d="M 328.883,89.125 436.473,196.714 164.133,469.054 56.604,361.465 Z M 518.113,63.177 470.132,15.196 c -18.543,-18.543 -48.653,-18.543 -67.259,0 l -45.961,45.961 107.59,107.59 53.611,-53.611 c 14.382,-14.383 14.382,-37.577 0,-51.959 z M 0.3,512.69 c -1.958,8.812 5.998,16.708 14.811,14.565 L 135.002,498.186 27.473,390.597 Z"
         inkscape:connector-curvature="0" /></g><g
       id="g4638" /><g
       id="g4640" /><g
       id="g4642" /><g
       id="g4644" /><g
       id="g4646" /><g
       id="g4648" /><g
       id="g4650" /><g
       id="g4652" /><g
       id="g4654" /><g
       id="g4656" /><g
       id="g4658" /><g
       id="g4660" /><g
       id="g4662" /><g
       id="g4664" /><g
       id="g4666" /></g></svg>